
<svg version="1.1" id="Layer_1" xmlns="http://www.w3.org/2000/svg" xmlns:xlink="http://www.w3.org/1999/xlink" x="0px" y="0px"
	 viewBox="0 0 343.4 192.9" style="enable-background:new 0 0 343.4 192.9;" xml:space="preserve">
<style type="text/css">
	.st0{fill:url(#SVGID_1_);}
	.st1{fill:url(#SVGID_2_);}
	.st2{fill:url(#SVGID_3_);}
	.st3{fill:url(#SVGID_4_);}
	.st4{fill:url(#SVGID_5_);}
	.st5{fill:url(#SVGID_6_);}
</style>
<g>
	<linearGradient id="SVGID_1_" gradientUnits="userSpaceOnUse" x1="297.0438" y1="182.577" x2="216.6405" y2="78.3422">
		<stop  offset="0" style="stop-color:#00D2FC"/>
		<stop  offset="0.1464" style="stop-color:#00C2F1"/>
		<stop  offset="0.4346" style="stop-color:#0097D5"/>
		<stop  offset="0.8329" style="stop-color:#0052A8"/>
		<stop  offset="1" style="stop-color:#003394"/>
	</linearGradient>
	<path class="st0" d="M178.4,63c0.4,7.9,3.5,23.3,14.2,24.2c28.7,2.5,39.8,19.3,39.8,43.1c0,19,0,58.4,0,58.4h49.2
		c0,0,0-12.2,0-27.6c0-29.5,35.7-35.3,45.4-12.3C327,103,261.2,65.6,178.4,63z"/>
	<linearGradient id="SVGID_2_" gradientUnits="userSpaceOnUse" x1="36.568" y1="190.1821" x2="116.8213" y2="84.0378">
		<stop  offset="0" style="stop-color:#FCF800"/>
		<stop  offset="0.1088" style="stop-color:#F1F000"/>
		<stop  offset="0.2992" style="stop-color:#D4DB00"/>
		<stop  offset="0.5485" style="stop-color:#A5B800"/>
		<stop  offset="0.8438" style="stop-color:#658900"/>
		<stop  offset="1" style="stop-color:#406E00"/>
	</linearGradient>
	<path class="st1" d="M160.5,63c-0.4,7.9-3.5,23.3-14.2,24.2c-28.7,2.5-39.8,19.3-39.8,43.1c0,19,0,58.4,0,58.4H57.3
		c0,0,0-12.2,0-27.6c0-29.5-35.7-35.3-45.4-12.3C11.9,103,77.7,65.6,160.5,63z"/>
	<linearGradient id="SVGID_3_" gradientUnits="userSpaceOnUse" x1="73.8291" y1="125.8131" x2="265.0698" y2="125.8131">
		<stop  offset="0" style="stop-color:#903C00"/>
		<stop  offset="0.111" style="stop-color:#AC5203"/>
		<stop  offset="0.2594" style="stop-color:#CA6907"/>
		<stop  offset="0.4161" style="stop-color:#E17C0A"/>
		<stop  offset="0.5828" style="stop-color:#F2890B"/>
		<stop  offset="0.7665" style="stop-color:#FC910D"/>
		<stop  offset="1" style="stop-color:#FF930D"/>
	</linearGradient>
	<path class="st2" d="M169.4,62.9c-36,0-69.1,6.6-95.6,17.6c54-8.9,67.2,16.8,67.2,48.2c0,34.2,0,60,0,60h56.9c0,0,0-25.8,0-60
		c0-31.5,13.1-57.1,67.2-48.2C238.6,69.5,205.4,62.9,169.4,62.9z"/>
	<linearGradient id="SVGID_4_" gradientUnits="userSpaceOnUse" x1="233.8194" y1="103.5229" x2="132.0663" y2="-4.7949">
		<stop  offset="0" style="stop-color:#903C00"/>
		<stop  offset="3.281653e-03" style="stop-color:#913D00"/>
		<stop  offset="0.216" style="stop-color:#B85B05"/>
		<stop  offset="0.4257" style="stop-color:#D77408"/>
		<stop  offset="0.6294" style="stop-color:#ED850B"/>
		<stop  offset="0.8241" style="stop-color:#FA8F0C"/>
		<stop  offset="1" style="stop-color:#FF930D"/>
	</linearGradient>
	<circle class="st3" cx="169.4" cy="35" r="27.9"/>
	<linearGradient id="SVGID_5_" gradientUnits="userSpaceOnUse" x1="244.8353" y1="9.6382" x2="320.3282" y2="131.083">
		<stop  offset="0" style="stop-color:#00D2FC"/>
		<stop  offset="9.262413e-02" style="stop-color:#00BCEB"/>
		<stop  offset="0.2862" style="stop-color:#0095CC"/>
		<stop  offset="0.4772" style="stop-color:#0076B3"/>
		<stop  offset="0.6626" style="stop-color:#0060A2"/>
		<stop  offset="0.8398" style="stop-color:#005398"/>
		<stop  offset="1" style="stop-color:#004E94"/>
	</linearGradient>
	<circle class="st4" cx="272.8" cy="54.7" r="27.9"/>
	<linearGradient id="SVGID_6_" gradientUnits="userSpaceOnUse" x1="96.0225" y1="4.2737" x2="-7.3722" y2="178.2394">
		<stop  offset="0" style="stop-color:#FCF800"/>
		<stop  offset="0.1441" style="stop-color:#D7DF00"/>
		<stop  offset="0.3266" style="stop-color:#B0C400"/>
		<stop  offset="0.5068" style="stop-color:#91AF00"/>
		<stop  offset="0.6817" style="stop-color:#7BA000"/>
		<stop  offset="0.8489" style="stop-color:#6E9700"/>
		<stop  offset="1" style="stop-color:#699400"/>
	</linearGradient>
	<circle class="st5" cx="66.1" cy="54.7" r="27.9"/>
</g>
</svg>
